<?xml version="1.0" encoding="UTF-8" standalone="no"?>
<!DOCTYPE svg PUBLIC "-//W3C//DTD SVG 1.1//EN"
 "http://www.w3.org/Graphics/SVG/1.1/DTD/svg11.dtd">
<!-- Generated by graphviz version 2.43.0 (0)
 -->
<!-- Title: %3 Pages: 1 -->
<svg width="402pt" height="50pt"
 viewBox="0.00 0.00 402.09 50.40" xmlns="http://www.w3.org/2000/svg" xmlns:xlink="http://www.w3.org/1999/xlink">
<g id="graph0" class="graph" transform="scale(1 1) rotate(0) translate(7.2 43.2)">
<title>%3</title>
<polygon fill="white" stroke="transparent" points="-7.2,7.2 -7.2,-43.2 394.89,-43.2 394.89,7.2 -7.2,7.2"/>
<!-- water -->
<g id="node1" class="node">
<title>water</title>
<ellipse fill="skyblue" stroke="black" cx="38.35" cy="-18" rx="38.19" ry="18"/>
<text text-anchor="middle" x="38.35" y="-14.3" font-family="Times,serif" font-size="14.00">Water</text>
</g>
<!-- rice -->
<g id="node2" class="node">
<title>rice</title>
<polygon fill="orange" stroke="black" points="199.69,-36 145.69,-36 145.69,0 199.69,0 199.69,-36"/>
<text text-anchor="middle" x="172.69" y="-14.3" font-family="Times,serif" font-size="14.00">Rice</text>
</g>
<!-- water&#45;&gt;rice -->
<g id="edge1" class="edge">
<title>water&#45;&gt;rice</title>
<path fill="none" stroke="black" stroke-width="2.55" d="M76.92,-18C95.19,-18 117.06,-18 135.19,-18"/>
<polygon fill="black" stroke="black" stroke-width="2.55" points="135.37,-21.5 145.37,-18 135.37,-14.5 135.37,-21.5"/>
<text text-anchor="middle" x="111.19" y="-21.8" font-family="Times,serif" font-size="14.00">6 m³</text>
</g>
<!-- meal -->
<g id="node3" class="node">
<title>meal</title>
<polygon fill="forestgreen" stroke="black" points="387.69,-36 266.69,-36 266.69,0 387.69,0 387.69,-36"/>
<text text-anchor="middle" x="327.19" y="-14.3" font-family="Times,serif" font-size="14.00" fill="white">Delicious meal</text>
</g>
<!-- rice&#45;&gt;meal -->
<g id="edge2" class="edge">
<title>rice&#45;&gt;meal</title>
<path fill="none" stroke="black" stroke-width="1.1" d="M199.91,-18C215.57,-18 236.28,-18 256.38,-18"/>
<polygon fill="black" stroke="black" stroke-width="1.1" points="256.49,-21.5 266.49,-18 256.49,-14.5 256.49,-21.5"/>
<text text-anchor="middle" x="233.19" y="-21.8" font-family="Times,serif" font-size="14.00">1 kg</text>
</g>
</g>
</svg>
